# vtk DataFile Version 3.0
vtk output
ASCII
DATASET UNSTRUCTURED_GRID
POINTS 20 double
0.000000e+00	5.000000e-04	0.0	-1.000000e-02	5.000000e-04	0.0	-8.428333e-03	5.000000e-04	0.0	-7.092416e-03	5.000000e-04	0.0	-5.956886e-03	5.000000e-04	0.0	-4.991686e-03	5.000000e-04	0.0	-4.171266e-03	5.000000e-04	0.0	-3.473909e-03	5.000000e-04	0.0	-2.881156e-03	5.000000e-04	0.0	-2.377315e-03	5.000000e-04	0.0	-1.949051e-03	5.000000e-04	0.0	-1.585026e-03	5.000000e-04	0.0	-1.275605e-03	5.000000e-04	0.0	-1.012597e-03	5.000000e-04	0.0	-7.890403e-04	5.000000e-04	0.0	-5.990171e-04	5.000000e-04	0.0	-4.374974e-04	5.000000e-04	0.0	-3.002056e-04	5.000000e-04	0.0	-1.835076e-04	5.000000e-04	0.0	-8.431431e-05	5.000000e-04	0.0	
CELLS 19	57
2	1	2	2	2	3	2	3	4	2	4	5	2	5	6	2	6	7	2	7	8	2	8	9	2	9	10	2	10	11	2	11	12	2	12	13	2	13	14	2	14	15	2	15	16	2	16	17	2	17	18	2	18	19	2	19	0	
CELL_TYPES 19
3	3	3	3	3	3	3	3	3	3	3	3	3	3	3	3	3	3	3	
POINT_DATA 20

SCALARS Density double 1
LOOKUP_TABLE default
1.168450e+00	1.222882e+00	1.223238e+00	1.223306e+00	1.223570e+00	1.223659e+00	1.223740e+00	1.223737e+00	1.223679e+00	1.223543e+00	1.223320e+00	1.222987e+00	1.222488e+00	1.221776e+00	1.220693e+00	1.219214e+00	1.216435e+00	1.212532e+00	1.212654e+00	1.227902e+00	
VECTORS Momentum double
0.000000e+00	0.000000e+00	0.0	0.000000e+00	0.000000e+00	0.0	0.000000e+00	0.000000e+00	0.0	0.000000e+00	0.000000e+00	0.0	0.000000e+00	0.000000e+00	0.0	0.000000e+00	0.000000e+00	0.0	0.000000e+00	0.000000e+00	0.0	0.000000e+00	0.000000e+00	0.0	0.000000e+00	0.000000e+00	0.0	0.000000e+00	0.000000e+00	0.0	0.000000e+00	0.000000e+00	0.0	0.000000e+00	0.000000e+00	0.0	0.000000e+00	0.000000e+00	0.0	0.000000e+00	0.000000e+00	0.0	0.000000e+00	0.000000e+00	0.0	0.000000e+00	0.000000e+00	0.0	0.000000e+00	0.000000e+00	0.0	0.000000e+00	0.000000e+00	0.0	0.000000e+00	0.000000e+00	0.0	0.000000e+00	0.000000e+00	0.0	
SCALARS Energy double 1
LOOKUP_TABLE default
2.466848e+05	2.533685e+05	2.534470e+05	2.534620e+05	2.535169e+05	2.535378e+05	2.535630e+05	2.535789e+05	2.535932e+05	2.536026e+05	2.536066e+05	2.536027e+05	2.535827e+05	2.535436e+05	2.534642e+05	2.533616e+05	2.530850e+05	2.527280e+05	2.534439e+05	2.576116e+05	
SCALARS Turb_Kin_Energy double 1
LOOKUP_TABLE default
1.000000e-10	1.000000e-10	1.000000e-10	1.000000e-10	1.000000e-10	1.000000e-10	1.000000e-10	1.000000e-10	1.000000e-10	1.000000e-10	1.000000e-10	1.000000e-10	1.000000e-10	1.000000e-10	1.000000e-10	1.000000e-10	1.000000e-10	1.000000e-10	1.000000e-10	1.000000e-10	
SCALARS Omega double 1
LOOKUP_TABLE default
9.211134e+06	1.267308e+06	1.266938e+06	1.266868e+06	1.266594e+06	1.266503e+06	1.266419e+06	1.266422e+06	1.266482e+06	1.266622e+06	1.266854e+06	1.267199e+06	1.267716e+06	1.268454e+06	1.269580e+06	1.271120e+06	1.274024e+06	1.278125e+06	1.277996e+06	1.262126e+06	
SCALARS Pressure double 1
LOOKUP_TABLE default
9.867391e+04	1.013474e+05	1.013788e+05	1.013848e+05	1.014067e+05	1.014151e+05	1.014252e+05	1.014316e+05	1.014373e+05	1.014410e+05	1.014426e+05	1.014411e+05	1.014331e+05	1.014174e+05	1.013857e+05	1.013447e+05	1.012340e+05	1.010912e+05	1.013776e+05	1.030446e+05	
SCALARS Temperature double 1
LOOKUP_TABLE default
2.941863e+02	2.887078e+02	2.887130e+02	2.887142e+02	2.887143e+02	2.887173e+02	2.887268e+02	2.887456e+02	2.887755e+02	2.888183e+02	2.888755e+02	2.889498e+02	2.890450e+02	2.891687e+02	2.893348e+02	2.895684e+02	2.899131e+02	2.904360e+02	2.912294e+02	2.923425e+02	
SCALARS Mach double 1
LOOKUP_TABLE default
0.000000e+00	0.000000e+00	0.000000e+00	0.000000e+00	0.000000e+00	0.000000e+00	0.000000e+00	0.000000e+00	0.000000e+00	0.000000e+00	0.000000e+00	0.000000e+00	0.000000e+00	0.000000e+00	0.000000e+00	0.000000e+00	0.000000e+00	0.000000e+00	0.000000e+00	0.000000e+00	
SCALARS Sound_Speed double 1
LOOKUP_TABLE default
3.438429e+02	3.406262e+02	3.406293e+02	3.406300e+02	3.406300e+02	3.406318e+02	3.406375e+02	3.406486e+02	3.406662e+02	3.406914e+02	3.407252e+02	3.407690e+02	3.408251e+02	3.408980e+02	3.409959e+02	3.411335e+02	3.413365e+02	3.416442e+02	3.421105e+02	3.427637e+02	
SCALARS Pressure_Coefficient double 1
LOOKUP_TABLE default
-3.737749e+16	3.158100e+14	7.584962e+14	8.432569e+14	1.152532e+15	1.270858e+15	1.412773e+15	1.502434e+15	1.583265e+15	1.635881e+15	1.658376e+15	1.636487e+15	1.523839e+15	1.303113e+15	8.557670e+14	2.771083e+14	-1.282731e+15	-3.296139e+15	7.409085e+14	2.424493e+16	
VECTORS Velocity double
0.000000e+00	0.000000e+00	0.0	0.000000e+00	0.000000e+00	0.0	0.000000e+00	0.000000e+00	0.0	0.000000e+00	0.000000e+00	0.0	0.000000e+00	0.000000e+00	0.0	0.000000e+00	0.000000e+00	0.0	0.000000e+00	0.000000e+00	0.0	0.000000e+00	0.000000e+00	0.0	0.000000e+00	0.000000e+00	0.0	0.000000e+00	0.000000e+00	0.0	0.000000e+00	0.000000e+00	0.0	0.000000e+00	0.000000e+00	0.0	0.000000e+00	0.000000e+00	0.0	0.000000e+00	0.000000e+00	0.0	0.000000e+00	0.000000e+00	0.0	0.000000e+00	0.000000e+00	0.0	0.000000e+00	0.000000e+00	0.0	0.000000e+00	0.000000e+00	0.0	0.000000e+00	0.000000e+00	0.0	0.000000e+00	0.000000e+00	0.0	
SCALARS Laminar_Viscosity double 1
LOOKUP_TABLE default
1.716000e-05	1.716000e-05	1.716000e-05	1.716000e-05	1.716000e-05	1.716000e-05	1.716000e-05	1.716000e-05	1.716000e-05	1.716000e-05	1.716000e-05	1.716000e-05	1.716000e-05	1.716000e-05	1.716000e-05	1.716000e-05	1.716000e-05	1.716000e-05	1.716000e-05	1.716000e-05	
VECTORS Skin_Friction_Coefficient double
-2.770655e+14	0.000000e+00	0.0	-6.190106e+12	0.000000e+00	0.0	-7.618208e+12	0.000000e+00	0.0	-7.840719e+12	0.000000e+00	0.0	-7.623325e+12	0.000000e+00	0.0	-7.215130e+12	0.000000e+00	0.0	-6.810740e+12	0.000000e+00	0.0	-6.442114e+12	0.000000e+00	0.0	-6.150200e+12	0.000000e+00	0.0	-5.958660e+12	0.000000e+00	0.0	-5.919317e+12	0.000000e+00	0.0	-6.102270e+12	0.000000e+00	0.0	-6.627382e+12	0.000000e+00	0.0	-7.627310e+12	0.000000e+00	0.0	-9.335620e+12	0.000000e+00	0.0	-1.180697e+13	0.000000e+00	0.0	-1.535206e+13	0.000000e+00	0.0	-1.937420e+13	0.000000e+00	0.0	-2.558432e+13	0.000000e+00	0.0	-2.554254e+13	0.000000e+00	0.0	
SCALARS Heat_Flux double 1
LOOKUP_TABLE default
-0.000000e+00	-0.000000e+00	-0.000000e+00	-0.000000e+00	-0.000000e+00	-0.000000e+00	-0.000000e+00	-0.000000e+00	-0.000000e+00	-0.000000e+00	-0.000000e+00	-0.000000e+00	-0.000000e+00	-0.000000e+00	-0.000000e+00	-0.000000e+00	-0.000000e+00	-0.000000e+00	-0.000000e+00	-0.000000e+00	
SCALARS Y_Plus double 1
LOOKUP_TABLE default
9.973059e+00	4.018849e+00	4.459050e+00	4.523826e+00	4.461153e+00	4.340229e+00	4.216986e+00	4.101273e+00	4.007180e+00	3.944068e+00	3.930667e+00	3.990405e+00	4.157705e+00	4.459046e+00	4.931002e+00	5.542040e+00	6.312309e+00	7.079767e+00	8.136092e+00	8.180398e+00	
SCALARS Eddy_Viscosity double 1
LOOKUP_TABLE default
1.268509e-17	9.649294e-17	9.654924e-17	9.655990e-17	9.660168e-17	9.661566e-17	9.662843e-17	9.662799e-17	9.661890e-17	9.659744e-17	9.656217e-17	9.650961e-17	9.643087e-17	9.631868e-17	9.614792e-17	9.591523e-17	9.547851e-17	9.486685e-17	9.488605e-17	9.728744e-17	